<svg id="Layer_1" data-name="Layer 1" xmlns="http://www.w3.org/2000/svg" viewBox="0 0 541.26 541.26"><defs><style>.cls-1{fill:#3fa1d9;}.cls-2{fill:#fff;}.cls-3{fill:#c43037;}</style></defs><title>logo</title><path class="cls-1" d="M493,256.27a225.15,225.15,0,0,0-381.56-124,223.44,223.44,0,0,0-63.2,124,228.22,228.22,0,0,0,2.75,85,222.56,222.56,0,0,0,12.39,38.42c1.17,2.74,2.37,5.46,3.65,8.15a225.41,225.41,0,0,0,407.2,0c1.28-2.69,2.48-5.41,3.65-8.15a222.58,222.58,0,0,0,12.84-40.54,227.9,227.9,0,0,0,2.3-82.87Z"/><path class="cls-2" d="M74,208.42a213.54,213.54,0,0,1,393.29,0,211.32,211.32,0,0,1,13.87,47.85h-421A211.32,211.32,0,0,1,74,208.42Z"/><path class="cls-3" d="M270.63,88.07C170.48,88.07,87,160.83,70.27,256.27h7.47a196.13,196.13,0,0,1,373.54-41.08,194.18,194.18,0,0,1,12.25,41.08H471C454.26,160.83,370.79,88.07,270.63,88.07Z"/><path class="cls-1" d="M467.28,374.56q-1.09,2.57-2.24,5.11H76.23q-1.15-2.54-2.24-5.11a212.07,212.07,0,0,1-16.77-83.07,216.2,216.2,0,0,1,1.69-27.07H482.35A216.2,216.2,0,0,1,484,291.49,212.07,212.07,0,0,1,467.28,374.56Z"/><path class="cls-1" d="M165.28,205.95a16.48,16.48,0,0,1,8.69-4.11,4.38,4.38,0,0,1,4.94,4.49c3.41-3.6,7.65-5.37,10.17-5.55,3.21-.22,4.89,2,4.89,4.79,0,1.73-.64,3.95-1.83,7l-10.32,26.3c-1,2.94-1,4.71,1.88,6L181.28,251c-7.7-2-8.84-7.33-6.77-13.06l8.54-21.78c1.23-3,2.27-5.64,2.27-6.68,0-.69-.44-1.11-1.28-1-1.58.11-4.49,2-7,5l-10.62,27.26-7.85.55,9.38-24c1.24-3,2.27-5.64,2.27-6.68,0-.69-.44-1.11-1.33-1-1.53.11-4.25,1.88-6.77,4.62l-10.77,27.62-7.85.55L156,210.19c-7.6,3.05-14.67,5.08-14.67,9.22,0,2.37,2.22,2.81,3.46,2.72v6.42c-6,.42-10.12-3-10.07-8.38,0-10.22,12.89-12.7,24.3-17.75Z"/><path class="cls-1" d="M223,224.33c-2.67,4.78-7.16,8.4-12.2,8.36a14.48,14.48,0,0,1-10.32,5.61c-6.12.43-9.48-3.09-9.48-8.72,0-6.62,4.84-17.87,15.31-18.6,6-.42,9.28,2.81,9.28,8.54a22.33,22.33,0,0,1-2.22,9.19c2.42-.57,4.84-2.56,6.86-6.16A3.51,3.51,0,0,1,223,224.33Zm-19.06,6.17a3.7,3.7,0,0,1-1.09-2.69,4.28,4.28,0,0,1,4.2-4.24,16.72,16.72,0,0,0,1.09-5c0-1.83-.89-2.51-1.93-2.43-3.9.27-7.7,10.91-7.7,14.56,0,1.58.74,2.57,1.93,2.48S202.8,232,203.89,230.5Z"/><path class="cls-1" d="M248.18,222.57c-3.31,6.06-8.35,9.72-14.67,7.35,0,0-1.68,2-8.79,6l-7.7.54,5.63-26,7.7-.54-4.25,19.65a35.54,35.54,0,0,0,12.3-20.22l6.27-1.08a40,40,0,0,1-8.15,18.2c2.72.95,5.78-.21,8.89-5.71A3.51,3.51,0,0,1,248.18,222.57Z"/><path class="cls-1" d="M263,221.53c-3.8,6.93-8.74,13-14.42,13.4-4.49.31-7.65-3-4-12.21l5.58-14.17L258,208l-6.07,15.54c-2.27,5.79-1.38,6.42-.54,6.36,2-.14,5.38-3.83,8.89-10.15A3.51,3.51,0,0,1,263,221.53ZM252.28,202a4.66,4.66,0,0,1,4.35-4.6,4,4,0,0,1,4.35,4,4.86,4.86,0,0,1-4.35,4.65A4,4,0,0,1,252.28,202Z"/><path class="cls-1" d="M306,218.52c-4,7.14-8.69,13-14.62,13.42-5.14.36-7.31-3.39-3.75-12.43l.69-1.88a25.07,25.07,0,0,0,1.73-5.11c0-.69-.54-1-1.28-1-1.23.09-3.51,1.43-5.58,3.85l-6.62,17-7.9.55c1.63-4.21,4-10,5.63-14.27a25.38,25.38,0,0,0,1.73-5.16c0-.64-.59-1-1.33-.94-1.18.08-3.46,1.38-5.53,3.89l-6.67,16.91-7.85.55L265,207.51l6.82,2.14c.25-.26,4-3.54,8-3.82,3.11-.22,4.74,1.4,4.79,3.91,1.18-1.27,5-4.6,9.29-4.9,3.16-.22,4.79,1.39,4.79,4a17.48,17.48,0,0,1-1.48,5.68l-2.42,6c-2.27,5.84-1.33,6.41-.49,6.36,2-.14,5.33-3.83,8.89-10.15A3.51,3.51,0,0,1,306,218.52Z"/><path class="cls-1" d="M331.23,216.76c-3.36,6.16-9.38,13.05-18.87,13.71-6.86.48-10.17-2.65-10.17-8,0-6.57,5-18.52,15.56-19.26,5.58-.39,10.32,2.93,7.16,10.26-2.08,4.64-6,7.78-15.16,7.23,0,0-1.43,5.24,4.84,4.8,5-.35,10.37-4,13.88-10.5A3.51,3.51,0,0,1,331.23,216.76Zm-20.15-.42c4.54.47,6-1.71,7-4.1.64-1.53.94-2.88-.74-2.76C313.7,209.74,311.08,216.34,311.08,216.34Z"/><path class="cls-1" d="M360.12,214.74c-4,7.14-8.69,13-14.62,13.42-5.14.36-7.26-3.44-3.75-12.43l.74-1.88a26.12,26.12,0,0,0,1.73-5.11c0-.69-.59-1-1.33-1-1.19.08-3.46,1.38-5.53,3.89l-6.67,16.91-7.85.55,10.37-26.35,6.82,2.14c.25-.26,3.9-3.53,8.1-3.83,3.11-.22,4.74,1.35,4.74,4a16.56,16.56,0,0,1-1.48,5.68l-2.42,6c-2.27,5.84-1.33,6.41-.49,6.36,2-.14,5.38-3.83,8.89-10.15A3.51,3.51,0,0,1,360.12,214.74Z"/><path class="cls-1" d="M375.82,213.64c-3.65,6.67-8.69,13-14.91,13.44-4.89.34-8-3.1-4.39-12.19l5.58-14.17L358,201l1.63-4.06,4-.28,2.37-6,7.85-.55-2.37,6,4-.28-1.63,4.07-3.9.27-6.07,15.54c-2.32,5.79-1.24,6.41-.15,6.33,2.42-.17,5.78-3.91,9.33-10.18A3.51,3.51,0,0,1,375.82,213.64Z"/><path class="cls-1" d="M404.21,211.66c-2.67,4.78-7.16,8.4-12.2,8.36a14.48,14.48,0,0,1-10.32,5.61c-6.12.43-9.48-3.09-9.48-8.72,0-6.62,4.84-17.87,15.31-18.6,6-.42,9.28,2.81,9.28,8.54a22.33,22.33,0,0,1-2.22,9.19c2.42-.57,4.84-2.56,6.86-6.16A3.51,3.51,0,0,1,404.21,211.66Zm-19.06,6.17a3.69,3.69,0,0,1-1.09-2.69,4.28,4.28,0,0,1,4.2-4.24,16.72,16.72,0,0,0,1.09-5c0-1.83-.89-2.5-1.93-2.43-3.9.27-7.7,10.91-7.7,14.56,0,1.58.74,2.57,1.93,2.48S384.06,219.34,385.15,217.83Z"/><polygon class="cls-3" points="178.44 145.21 181.77 151.95 189.21 153.03 183.82 158.28 185.09 165.7 178.44 162.2 171.78 165.7 173.05 158.28 167.67 153.03 175.11 151.95 178.44 145.21"/><polygon class="cls-3" points="363.27 145.21 366.6 151.95 374.05 153.03 368.66 158.28 369.93 165.7 363.27 162.2 356.62 165.7 357.89 158.28 352.5 153.03 359.95 151.95 363.27 145.21"/><path class="cls-2" d="M342.79,107a10.21,10.21,0,0,0-7.22-17.43H321.94l12.59-5.21a10.21,10.21,0,1,0-7.81-18.87l-12.55,5.2,9.61-9.61a10.21,10.21,0,0,0-14.44-14.44L299.7,56.3l5.21-12.58A10.21,10.21,0,1,0,286,35.9l-5.2,12.55V34.87a10.21,10.21,0,1,0-20.42,0V48.48L255.2,35.89a10.21,10.21,0,0,0-18.86,7.83l5.21,12.56-9.62-9.62A10.21,10.21,0,0,0,217.49,61.1l9.63,9.63-12.56-5.2a10.21,10.21,0,1,0-7.83,18.86l12.56,5.2H205.69a10.21,10.21,0,0,0,0,20.42H219.3l-12.57,5.21a10.21,10.21,0,1,0,7.82,18.87l12.56-5.21-9.61,9.61a10.21,10.21,0,1,0,14.44,14.44l7.56-7.56c.16.91.33,1.88.49,2.9a10.16,10.16,0,0,0-.3,2.46v23.61a16.48,16.48,0,0,0,16.46,16.46h1.59a16.45,16.45,0,0,0,25.81,0H285a16.48,16.48,0,0,0,16.46-16.46v-1.44a9.72,9.72,0,0,0,.08-1.27v-20.9a10.14,10.14,0,0,0-.3-2.46c.16-1,.32-2,.49-2.9l7.56,7.57a10.21,10.21,0,0,0,14.43-14.45l-9.63-9.63,12.56,5.2a10.21,10.21,0,1,0,7.84-18.86L322,110h13.59A10.15,10.15,0,0,0,342.79,107Z"/><path class="cls-3" d="M270.63,61.8a38.75,38.75,0,0,0-38.71,38.71c0,10.44,5.57,20,10.48,28.5.65,1.12,1.29,2.23,1.91,3.31,1.86,3.29,3.4,12.24,4.06,17a2,2,0,0,0-.55,1.39v7h0v16.64a8.32,8.32,0,0,0,8.31,8.31h6.46a8.32,8.32,0,0,0,8,6.25h0a8.32,8.32,0,0,0,8-6.25H285a8.32,8.32,0,0,0,8.31-8.31V172.2a2,2,0,0,0,.08-.55V157.72h0v-7a2,2,0,0,0-.55-1.39c.67-4.8,2.2-13.75,4.07-17,.61-1.09,1.25-2.19,1.91-3.32,4.91-8.47,10.47-18.06,10.47-28.5A38.75,38.75,0,0,0,270.63,61.8Zm-5.77,45.75c3.26,1.79,7.81,2.15,10.74,0a5.14,5.14,0,0,0,3.85-.64L275,148.69H266.2l-4.53-41.81a6.2,6.2,0,0,0,1.2.49A5.08,5.08,0,0,0,264.86,107.55Zm.07-6.53a2.45,2.45,0,0,1,.17-.4,1.87,1.87,0,0,1,.65,1.17,1.2,1.2,0,0,1-.35,1A1.79,1.79,0,0,1,264.93,101Zm4.17,3.74a5.26,5.26,0,0,0,.8-2.77,8,8,0,0,0,1.52,2.9A7.28,7.28,0,0,1,269.1,104.75Zm4.79-4.84a.5.5,0,0,1,.3-.07,1.11,1.11,0,0,1,.74.27c.42.38.3,1.21-.27,2.22A2.74,2.74,0,0,1,273.88,99.91Zm15.43,53v2.75H251.95v-2.75Zm0,9.72H251.95v-2.84h37.37Zm-37.37,4.12h37.37v2.84H251.95Zm18.68,18a4.19,4.19,0,0,1-3.64-2.12h7.28A4.19,4.19,0,0,1,270.63,184.8Zm18.6-10.43a4.19,4.19,0,0,1-4.19,4.19H256.13a4.19,4.19,0,0,1-4.19-4.19v-.65h37.28Zm6.07-47.42c-.66,1.14-1.31,2.26-1.93,3.35-2.38,4.21-4,14.11-4.55,18.4h-9.65l5.17-48.82a2.06,2.06,0,0,0-4.07-.64,6.79,6.79,0,0,1-1,2.07,5,5,0,0,0-5.42-5.57A4.31,4.31,0,0,0,270,98.61a5.47,5.47,0,0,0-.29,1.81,5.28,5.28,0,0,0-4.49-4c-1.87-.13-3.41,1.12-4.15,3.25a5.94,5.94,0,0,0-.17.59l-.08-.14a2.06,2.06,0,0,0-3.86,1.21L262,148.69h-9.61c-.59-4.29-2.16-14.19-4.55-18.4-.62-1.1-1.27-2.21-1.93-3.35-4.65-8-9.92-17.11-9.92-26.43a34.58,34.58,0,1,1,69.17,0C305.21,109.83,299.95,118.92,295.3,126.94Z"/><path class="cls-3" d="M270.63,51a2.06,2.06,0,0,0,2.06-2.06v-14a2.06,2.06,0,0,0-4.12,0v14A2.06,2.06,0,0,0,270.63,51Z"/><path class="cls-3" d="M335.57,97.74H321.52a2.06,2.06,0,1,0,0,4.12h14.05a2.06,2.06,0,1,0,0-4.12Z"/><path class="cls-3" d="M221.8,99.81a2.06,2.06,0,0,0-2.06-2.06h-14a2.06,2.06,0,1,0,0,4.12h14A2.06,2.06,0,0,0,221.8,99.81Z"/><path class="cls-3" d="M306.62,65.88a2.06,2.06,0,0,0,1.46-.6L318,55.34a2.06,2.06,0,1,0-2.92-2.92l-9.93,9.94a2.06,2.06,0,0,0,1.46,3.52Z"/><path class="cls-3" d="M233.19,134.33l-9.94,9.93a2.06,2.06,0,0,0,2.92,2.92l9.94-9.93a2.06,2.06,0,0,0-2.92-2.92Z"/><path class="cls-3" d="M308.07,134.33a2.06,2.06,0,1,0-2.92,2.92l9.93,9.93a2.06,2.06,0,1,0,2.92-2.92Z"/><path class="cls-3" d="M233.19,65.28a2.06,2.06,0,0,0,2.92-2.92l-9.93-9.94a2.06,2.06,0,1,0-2.92,2.92Z"/><path class="cls-3" d="M289.31,54.69a2,2,0,0,0,.79.16A2.06,2.06,0,0,0,292,53.57l5.38-13A2.06,2.06,0,1,0,293.57,39L288.2,52A2.06,2.06,0,0,0,289.31,54.69Z"/><path class="cls-3" d="M331.42,122.74l-13-5.38a2.06,2.06,0,0,0-1.58,3.81l13,5.38a2,2,0,0,0,.79.16,2.06,2.06,0,0,0,.79-4Z"/><path class="cls-3" d="M209.84,76.87l13,5.37a2.06,2.06,0,0,0,1.58-3.81l-13-5.37a2.06,2.06,0,0,0-1.58,3.81Z"/><path class="cls-3" d="M315.74,81.11a2.06,2.06,0,0,0,1.91,1.28,2,2,0,0,0,.79-.16l13-5.38A2.06,2.06,0,1,0,329.84,73l-13,5.38A2.06,2.06,0,0,0,315.74,81.11Z"/><path class="cls-3" d="M225.52,118.49a2.07,2.07,0,0,0-2.69-1.12l-13,5.38a2.06,2.06,0,1,0,1.58,3.81l13-5.38A2.06,2.06,0,0,0,225.52,118.49Z"/><path class="cls-3" d="M270.6,142.06l-3.06-28.23a16.9,16.9,0,0,0,3.09.29,15.13,15.13,0,0,0,3-.29Z"/><path class="cls-3" d="M249.25,53.58a2.06,2.06,0,0,0,1.91,1.28,2,2,0,0,0,.79-.16A2.06,2.06,0,0,0,253.06,52l-5.38-13a2.06,2.06,0,1,0-3.81,1.58Z"/><path class="cls-2" d="M467.28,374.56A212.07,212.07,0,0,0,484,291.49a216.2,216.2,0,0,0-1.69-27.07H58.91a216.2,216.2,0,0,0-1.69,27.07A212.07,212.07,0,0,0,74,374.56q1.09,2.57,2.24,5.11H465Q466.18,377.13,467.28,374.56Z"/><path class="cls-3" d="M175.68,339H176l17.86-51.23H212v69.52H198.08V309.85l-.29,0L180.6,357.31h-9.45L154,309.71l-.29,0v47.56H139.73V287.79H158Z"/><path class="cls-3" d="M254.23,357.31a29.17,29.17,0,0,1-1.31-3.72,25.91,25.91,0,0,1-.79-4,19.11,19.11,0,0,1-5.68,6.26,14.24,14.24,0,0,1-8.4,2.48q-8.12,0-12.51-4.18t-4.39-11.39A13.62,13.62,0,0,1,227,331q5.85-4.18,17.07-4.18h7.83V322.7a8,8,0,0,0-2-5.78q-2-2.05-5.83-2.05a7.57,7.57,0,0,0-5.23,1.65A5.75,5.75,0,0,0,237,321H223.62l-.1-.29q-.33-6.54,5.71-11.29T245,304.69q9.31,0,15.06,4.68t5.75,13.42v21.34a40.37,40.37,0,0,0,.55,6.83,34.19,34.19,0,0,0,1.74,6.35ZM241.48,348a11.88,11.88,0,0,0,6.49-1.81,9.77,9.77,0,0,0,3.92-4.2v-7.31h-7.83q-4.44,0-6.71,2.2a7.22,7.22,0,0,0-2.27,5.4,5.39,5.39,0,0,0,1.7,4.18A6.7,6.7,0,0,0,241.48,348Z"/><path class="cls-3" d="M293.77,335.68h-3.53v21.63H276.29V282.83h13.94v42.26h3.1l12.37-19.43h16.14L305,329.19l19.1,28.12h-16Z"/><path class="cls-3" d="M350.11,358.32q-11.56,0-18-7.09T325.57,333v-1.91q0-11.6,6.3-19t17.33-7.35q10.41,0,16,6.37t5.56,17.17v7.21h-30.8l-.14.29a14,14,0,0,0,3.22,8.59q2.89,3.29,8.57,3.29a28.68,28.68,0,0,0,8-1,32.44,32.44,0,0,0,6.76-2.91l3.77,8.59a25.88,25.88,0,0,1-8.4,4.25A37.27,37.27,0,0,1,350.11,358.32Zm-.91-42.88a7.74,7.74,0,0,0-6.47,2.89A14.49,14.49,0,0,0,340,326l.1.24h17v-1.05a12.07,12.07,0,0,0-1.86-7.14Q353.36,315.44,349.2,315.44Z"/><path class="cls-3" d="M406,317.63l-5.11-.14a9.29,9.29,0,0,0-5.11,1.29,8.17,8.17,0,0,0-3.06,3.63v34.9H378.85V305.65h12.94l.62,7.64a16.3,16.3,0,0,1,4.7-6.33,11,11,0,0,1,8.59-2.1q.88.17,1.79.41Z"/><path class="cls-2" d="M421.54,442.4a213.54,213.54,0,0,1-341.4-54.58h381A212.83,212.83,0,0,1,421.54,442.4Z"/><path class="cls-3" d="M270.63,494.91c77.34,0,144.73-43.39,179.13-107.1h-8.38a196,196,0,0,1-341.49,0H91.5C125.9,451.52,193.29,494.91,270.63,494.91Z"/><polygon class="cls-1" points="363.27 433.91 270.86 460.69 178.44 433.91 178.44 381.03 363.27 381.03 363.27 433.91"/><path class="cls-2" d="M198.63,415.76V421h-2.9V406.53h5.54a5.7,5.7,0,0,1,3.93,1.27,4.63,4.63,0,0,1,0,6.69,5.74,5.74,0,0,1-3.93,1.26Zm0-2.24h2.64a2.42,2.42,0,0,0,1.84-.66,2.36,2.36,0,0,0,.63-1.69,2.46,2.46,0,0,0-.62-1.73,2.37,2.37,0,0,0-1.85-.68h-2.64Z"/><path class="cls-2" d="M227.55,415.08a6.08,6.08,0,0,1-1.68,4.41,6.35,6.35,0,0,1-8.73,0,6.11,6.11,0,0,1-1.67-4.41v-2.61a6.12,6.12,0,0,1,1.67-4.4,5.73,5.73,0,0,1,4.34-1.75,5.83,5.83,0,0,1,4.39,1.75,6.07,6.07,0,0,1,1.69,4.4Zm-2.89-2.63a4.38,4.38,0,0,0-.85-2.78,2.8,2.8,0,0,0-2.34-1.08,2.71,2.71,0,0,0-2.29,1.08,4.47,4.47,0,0,0-.82,2.78v2.63a4.51,4.51,0,0,0,.83,2.81A2.74,2.74,0,0,0,221.5,419a2.77,2.77,0,0,0,2.33-1.08,4.47,4.47,0,0,0,.84-2.81Z"/><path class="cls-2" d="M239.89,415.22V421H237V406.53h5a6,6,0,0,1,3.87,1.13,3.82,3.82,0,0,1,1.4,3.15,3.18,3.18,0,0,1-.59,1.92A4.13,4.13,0,0,1,245,414a3.11,3.11,0,0,1,1.85,1.26,4,4,0,0,1,.56,2.19v1.06a5.27,5.27,0,0,0,.16,1.27,1.75,1.75,0,0,0,.56,1V421h-3a1.62,1.62,0,0,1-.51-1.05,9.35,9.35,0,0,1-.11-1.42v-1a2.3,2.3,0,0,0-.59-1.69,2.24,2.24,0,0,0-1.68-.6Zm0-2.24h2.06a2.73,2.73,0,0,0,1.82-.52,1.92,1.92,0,0,0,.6-1.53,2.1,2.1,0,0,0-.6-1.58,2.43,2.43,0,0,0-1.77-.59h-2.11Z"/><path class="cls-2" d="M266.69,408.77h-4.14V421h-2.9V408.77h-4.08v-2.24h11.12Z"/><path class="cls-2" d="M286.9,406.53V416a4.76,4.76,0,0,1-1.62,3.83,6.26,6.26,0,0,1-4.21,1.38,6.19,6.19,0,0,1-4.18-1.38,4.79,4.79,0,0,1-1.61-3.83v-9.48h2.91V416a3,3,0,0,0,.78,2.22,2.86,2.86,0,0,0,2.1.77,2.92,2.92,0,0,0,2.13-.77A3,3,0,0,0,284,416v-9.48Z"/><path class="cls-2" d="M307.64,419a5.51,5.51,0,0,1-2,1.54,8,8,0,0,1-3.46.65,5.86,5.86,0,0,1-4.3-1.65,5.76,5.76,0,0,1-1.67-4.29v-3a5.87,5.87,0,0,1,1.62-4.28,5.58,5.58,0,0,1,4.17-1.66,5.92,5.92,0,0,1,4.07,1.26,4.13,4.13,0,0,1,1.36,3.36l0,.06h-2.74a2.37,2.37,0,0,0-.67-1.8,2.69,2.69,0,0,0-1.94-.64,2.61,2.61,0,0,0-2.15,1,4.14,4.14,0,0,0-.82,2.65v3a4.13,4.13,0,0,0,.84,2.68,2.73,2.73,0,0,0,2.24,1,5.15,5.15,0,0,0,1.64-.21,2.49,2.49,0,0,0,.93-.53v-2.81h-2.79v-2h5.7Z"/><path class="cls-2" d="M324.79,417.89h-4.7l-1,3.12h-3L321,406.53h3L328.81,421h-3Zm-4-2.28h3.27l-1.6-5.1h-.06Z"/><path class="cls-2" d="M340.24,418.79h6.49V421h-9.39V406.53h2.9Z"/></svg>